<svg width="262" height="290" viewBox="0 0 262 290" fill="none" xmlns="http://www.w3.org/2000/svg">
<path d="M259.7 282.111V130.511C259.7 59.6107 202.2 2.21069 131.4 2.21069C60.5 2.21069 3 59.7107 3 130.511V282.011C3 283.911 3.1 285.811 3.1 287.611H259.5C259.7 285.811 259.7 283.911 259.7 282.111Z" fill="#EBEBEC" stroke="#B41E8E" stroke-width="4.156"/>
<path d="M198.8 103.011C198.8 103.011 203.2 104.311 203.2 105.911C203.2 107.511 204.3 111.311 200.8 114.811C197.2 118.411 196.4 120.511 196.1 118.711C195.8 116.911 198.2 102.811 198.2 102.811" fill="#FDD1B0"/>
<path d="M134.9 107.911C134.6 109.811 134.3 113.311 139.4 116.811C144.6 120.411 146.9 119.711 146.4 118.911C145.9 118.111 146.4 104.811 144.5 104.511C142.6 104.211 139 106.011 139 106.011" fill="#FDD1B0"/>
<path d="M70.8999 77.9106C70.8999 77.9106 69.9999 82.3106 89.8999 84.9106C109.7 87.5106 110.9 86.7106 113.2 92.8106C115.5 98.9106 119.6 103.011 120.5 104.211C121.4 105.411 120.8 108.911 118.5 112.411C116.2 115.911 112.7 116.211 111.8 119.411C110.9 122.611 107.1 128.211 106.8 129.311C106.5 130.511 104.2 139.811 101.8 142.411C99.4999 145.011 92.9999 146.511 90.3999 153.211C87.7999 159.911 85.9999 150.311 85.9999 150.311C85.9999 150.311 78.0999 143.911 74.8999 140.711C71.6999 137.511 70.4999 132.811 71.0999 130.211C71.6999 127.611 70.0999 123.911 66.6999 121.211C63.2999 118.511 61.1999 120.611 57.6999 114.811C54.1999 109.011 50.6999 105.211 57.6999 103.711C63.4999 97.6106 66.1999 81.5106 66.1999 81.5106" fill="#FDD1B0"/>
<path d="M146.4 120.411C146.4 120.411 142 101.711 146.1 95.3108C150.2 88.9108 171.2 78.4108 174.7 77.8108C178.2 77.2108 190.7 88.3108 192.8 92.4108C194.8 96.5108 199.2 103.211 196.6 112.511C194 121.811 189.6 129.711 188.1 133.511C186.6 137.311 187.5 143.111 186.1 145.211C184.6 147.211 170.6 146.411 162.8 147.511C154.9 148.711 150.3 140.511 150.5 137.311C150.8 134.111 154 130.911 151.4 128.811C148.7 126.911 146.4 120.411 146.4 120.411Z" fill="#FDD1B0"/>
<path d="M134.3 148.211C134.3 148.211 143.9 142.311 146.5 141.911C149.1 141.511 153.2 146.711 154.3 147.111C155.4 147.511 168 146.711 168 146.711C168 146.711 175 147.411 176.1 147.411C177.2 147.411 179.8 148.511 184.6 146.311C189.4 144.111 193.1 139.311 193.1 139.311L207.5 144.511L209.7 147.811L169 162.611L132.8 150.011" fill="#FAD5E5"/>
<path d="M111 138.211C111 138.211 123.2 142.311 125.8 146.711C128.4 151.111 116.9 149.711 114.7 146.711C112.4 143.811 111 138.211 111 138.211Z" fill="#CCE7D3"/>
<path d="M89.9001 161.811C89.9001 161.811 87.1001 154.311 93.5001 148.011C99.9001 141.711 106.1 140.111 106.1 140.111L105.7 154.911" fill="#CCE7D3"/>
<path d="M68.6001 149.211C68.6001 149.211 69.0001 153.111 70.0001 153.911C71.0001 154.711 89.1001 161.011 89.1001 161.011V152.511L73.7001 139.911L68.6001 149.211Z" fill="#CCE7D3"/>
<path d="M50.6001 146.811C50.6001 146.811 59.1001 143.211 62.2001 142.311C65.2001 141.511 65.8001 141.511 65.8001 141.511C65.8001 141.511 68.6001 144.911 68.2001 146.211C67.8001 147.411 67.4001 152.511 67.4001 152.511C67.4001 152.511 59.7001 152.111 57.3001 151.111C54.9001 150.111 50.8001 148.711 50.8001 148.711L50.6001 146.811Z" fill="#CCE7D3"/>
<path d="M171.8 225.611L170.2 162.611C170.2 162.611 226.9 141.111 235.1 142.611C235.2 154.111 233.5 159.011 233 162.011C232.6 165.011 235.6 166.811 233.7 167.311C231.8 167.811 226.6 169.611 223.7 172.111C220.8 174.611 220.3 175.911 221.9 176.611C223.5 177.311 221.4 180.811 221.9 181.511C222.4 182.211 224.8 183.311 224.8 183.311C224.8 183.311 222.6 186.311 224.1 187.111C225.6 187.911 226.6 187.911 226.6 187.911C226.6 187.911 226.3 189.711 227.8 191.211C229.3 192.711 229 196.811 229 196.811L226.4 208.011C226.4 208.011 188.5 217.411 177.8 223.511C170.1 227.011 171.8 225.611 171.8 225.611Z" fill="#008B4C"/>
<path d="M105.5 143.611C105.5 143.611 166.5 158.511 168.4 164.711C170.4 170.911 171.5 226.511 171.5 226.511L118.2 209.611L114.5 191.311C114.5 191.311 116.9 189.611 116.9 188.211C116.9 186.811 114.7 185.111 116.7 185.111C118.7 185.111 120.9 184.911 120.5 183.611C120.1 182.311 119.9 180.911 121.8 180.411C123.7 179.911 120.8 176.811 120.4 175.911C120 175.011 122.4 174.411 122.6 173.511C122.8 172.611 121.3 171.411 119.5 171.111C117.6 170.911 109.3 167.811 109.3 167.811L105.4 143.311" fill="#0054A6"/>
<path d="M105.5 143.611C105.5 143.611 166.5 158.511 168.4 164.711C170.4 170.911 171.5 226.511 171.5 226.511L118.2 209.611L114.5 191.311C114.5 191.311 116.9 189.611 116.9 188.211C116.9 186.811 114.7 185.111 116.7 185.111C118.7 185.111 120.9 184.911 120.5 183.611C120.1 182.311 119.9 180.911 121.8 180.411C123.7 179.911 120.8 176.811 120.4 175.911C120 175.011 122.4 174.411 122.6 173.511C122.8 172.611 121.3 171.411 119.5 171.111C117.6 170.911 109.3 167.811 109.3 167.811L105.4 143.311" stroke="white" stroke-width="0.1849"/>
<path d="M31.5 145.411C31.5 145.411 81.5 155.911 88.2 162.711C90.5 187.311 91.2 220.211 91.2 220.211C91.2 220.211 48 208.111 40.2 205.411C38.7 190.611 30.7 144.411 30.7 144.411" fill="#F49AC1"/>
<path d="M89.8999 160.811L107.1 154.111L108.2 165.711C108.2 165.711 97.0999 171.811 102.1 181.611C107.1 191.411 113.4 186.811 114.5 191.211C115.6 195.611 118.2 209.511 118.2 209.511L91.8999 220.211L89.8999 160.811Z" fill="#F49AC1"/>
<path d="M32.9 163.811C32.9 163.811 43.4 164.511 45.3 167.111C47.1 169.711 45.5 170.411 45.5 170.411C45.5 170.411 49.6 172.411 48.1 175.211C46.6 178.011 45.1 181.511 44.6 182.611C44 183.711 44.6 184.411 39.1 185.411C33.6 186.311 30 183.211 29.3 178.211C28.5 173.211 25 165.111 32.9 163.811Z" fill="white"/>
<path d="M13.9999 83.1107L10.4999 81.7107C7.6999 88.4107 5.4999 95.2107 3.8999 102.311L7.5999 103.111L8.1999 100.511C9.4999 99.3107 10.5999 98.5107 11.8999 98.0107C12.4999 97.7107 13.3999 97.6107 14.5999 97.6107C15.6999 97.6107 16.6999 97.7107 17.3999 97.9107C17.9999 98.1107 18.6999 98.5107 19.3999 99.0107C21.5999 100.411 22.4999 101.511 22.2999 102.311C22.1999 102.811 21.6999 103.311 20.9999 103.811L19.3999 104.511L23.9999 105.611C24.3999 105.311 24.7999 105.111 24.9999 104.911C25.7999 104.111 26.1999 103.511 26.2999 103.111C26.6999 101.511 25.8999 99.8107 23.5999 97.9107C22.0999 96.7107 20.6999 95.6107 19.2999 94.3107C18.4999 93.6107 18.1999 92.9107 18.3999 92.3107C18.5999 91.6107 19.4999 91.4107 21.0999 91.7107L31.6999 95.5107C31.9999 94.5107 32.3999 93.6107 32.7999 92.6107L13.0999 84.8107L13.9999 83.1107ZM15.9999 89.9107C15.2999 90.3107 14.8999 90.8107 14.5999 91.4107C14.2999 92.2107 14.3999 93.2107 14.9999 94.2107C12.9999 94.1107 11.2999 94.3107 9.7999 95.0107C10.3999 92.8107 11.1999 90.6107 11.9999 88.5107L15.9999 89.9107Z" fill="#B41E8E"/>
<path d="M20.5 77.9107C20.6 82.1107 21.1 84.7107 21.5 85.7107L25.8 86.6107C26.3 85.5107 27.3 84.3107 29 82.9107C30.6 81.6107 32.1 80.8107 33.4 80.3107C36.4999 79.3107 38.6 79.0107 39.8 79.2107L41.1999 76.9107L22.8 65.9107L24.1 63.7107L20.9 61.7107C16.7 68.3107 13.1 75.3107 10.2 82.5107L13.7 83.9107C15.8 78.8107 18.1 73.9107 20.8 69.1107C20.5 73.2107 20.4 76.1107 20.5 77.9107ZM34 76.5107C33.7 76.6107 33.4 76.7107 33 76.8107C29.9 77.6107 27.1999 79.0107 24.9 80.9107V80.2107C24.8 78.9107 24.8 77.9107 24.7 77.2107C24.6 76.5107 24.6 75.3107 24.7 73.6107C24.8 72.6107 24.8 71.8107 24.9 71.3107L34 76.5107Z" fill="#B41E8E"/>
<path d="M28.1998 57.7107L25.0998 55.5107C23.3998 57.8107 21.8998 60.2107 20.2998 62.6107L23.4998 64.6107C23.8998 63.9107 24.3998 63.1107 24.8998 62.4107L42.7998 74.1107L44.3998 71.7107L26.7998 59.6107L28.1998 57.7107Z" fill="#B41E8E"/>
<path d="M35.0998 61.9107L39.0998 63.7107C39.7998 62.7107 41.0998 61.8107 42.8998 60.9107C44.5998 60.0107 46.1998 59.6107 47.5998 59.4107C50.7998 59.0107 52.9998 59.3107 54.0998 59.8107C54.6998 59.2107 55.2998 58.5107 55.8998 57.9107L40.5998 42.9107L42.0998 41.4107L39.3998 38.7107C33.9998 44.1107 29.0998 49.9107 24.7998 56.0107L27.8998 58.2107C30.9998 53.8107 34.3998 49.7107 37.9998 45.7107C35.6998 52.1107 34.7998 57.5107 35.0998 61.9107ZM50.6998 61.2107C49.7998 61.1107 49.1998 61.0107 48.9998 61.0107C47.6998 60.9107 46.2998 61.1107 44.7998 61.8107L46.5998 65.0107C47.0998 64.9107 47.3998 64.8107 47.3998 64.7107C48.9998 64.2107 50.3998 64.1107 51.4998 64.3107L50.6998 61.2107ZM49.0998 55.9107C45.4998 55.8107 42.2998 56.6107 39.4998 58.1107V57.6107C39.4998 56.4107 39.5998 55.6107 39.6998 55.0107C40.2998 52.3107 40.8998 50.2107 41.3998 48.9107L49.0998 55.9107Z" fill="#B41E8E"/>
<path d="M63.7 41.9107C60.9 40.7107 58.5 39.4107 56.5 37.9107C56.4 39.0107 56.4 40.2107 56.4 41.3107C58.4 42.6107 60.3 43.6107 62.4 44.6107L63.6 45.2107C65.4 45.2107 66.3 45.3107 66.6 45.2107C67.6 45.1107 68.5999 44.9107 69.2999 44.4107C71.7999 42.6107 72.8 40.2107 72.1 37.0107C71.7 35.9107 71.1 34.6107 70.1 33.1107C68.9 31.1107 67.7 29.8107 66.4 29.2107L63.9 30.8107C64.1 31.5107 64 32.1107 63.7 32.8107C63.4 33.5107 63.0999 33.9107 62.7999 34.2107C62.2999 34.6107 61.6 34.3107 61 33.4107C59.7 31.6107 59.4 29.6107 60 27.1107C61.3 28.2107 63 28.9107 64.9 29.0107C66.7 29.2107 68.3 29.0107 69.7 28.5107C70.8 32.0107 71.9 34.5107 73 36.3107C74.5 38.7107 76.3 40.5107 78.5 41.8107L79.6 39.2107C78.2 38.4107 76.6999 36.5107 74.7999 33.4107C73.9999 32.0107 73.3 29.5107 72.9 25.7107C71.7 25.1107 70.6 24.5107 69.4 24.0107C68.4 24.9107 67.6 25.4107 66.9 25.5107C66.3 25.6107 65.7 25.6107 64.9 25.5107C64.1 25.4107 63.5 25.1107 63 24.8107C65.8 23.0107 68.6 21.3107 71.6 19.8107L69.7999 16.5107C61.5999 20.9107 53.8 26.2107 46.7 32.2107L49.1 35.1107C51.3 33.2107 53.7 31.4107 56 29.6107C56.2 32.0107 56.9 34.0107 58.1 35.5107C58.5 36.1107 59 36.6107 59.6 37.0107C60.5 37.8107 61.4 38.3107 62.4 38.4107C63.4 38.5107 64.3 38.3107 65.1 37.7107C66.1 37.0107 66.6 35.9107 66.9 34.4107C67.2 34.6107 67.4 34.9107 67.7 35.3107C68.5 36.5107 68.8 37.6107 68.5 38.7107C68.3 39.8107 67.7 40.7107 66.7 41.3107C66.3 41.6107 65.6 41.8107 64.7 41.8107C63.8 41.9107 63.3999 41.9107 63.2999 41.9107C63.0999 42.1107 63.0999 42.3107 63.2999 42.5107V41.9107H63.7Z" fill="#B41E8E"/>
<path d="M90.9998 11.3107L89.7998 7.71069C82.4998 10.1107 75.4998 13.2107 68.7998 16.9107L70.5998 20.2107C75.3998 17.5107 80.3998 15.2107 85.5998 13.2107L89.5998 23.5107C89.3998 23.4107 89.1998 23.2107 89.0998 23.1107C85.7998 20.7107 82.5998 20.2107 79.7998 21.5107C78.2998 22.2107 77.3998 23.4107 76.9998 25.1107C76.6998 26.9107 76.9998 28.6107 77.8998 30.4107C78.6998 31.9107 79.6998 33.0107 80.8998 33.8107C82.0998 34.6107 83.3998 34.9107 84.6998 34.6107C84.9998 34.5107 85.2998 34.5107 85.3998 34.5107L85.9998 34.2107C86.7998 33.8107 87.3998 33.2107 87.9998 32.3107L85.4998 29.0107C84.9998 29.7107 84.5998 30.2107 84.1998 30.4107C83.5998 30.7107 82.9998 30.7107 82.3998 30.4107C81.7998 30.1107 81.2998 29.6107 80.8998 28.9107C80.7998 28.7107 80.6998 28.5107 80.6998 28.3107C80.4998 26.8107 80.8998 25.8107 81.8998 25.3107C82.9998 24.8107 84.2998 24.8107 85.7998 25.4107C86.8998 25.8107 88.0998 26.5107 89.4998 27.6107C91.0998 28.9107 91.9998 30.1107 92.3998 31.1107L93.1998 33.3107C94.1998 32.9107 95.0998 32.5107 96.0998 32.2107L88.9998 12.1107L90.9998 11.3107Z" fill="#B41E8E"/>
<path d="M99.7998 8.71074L98.8998 5.01074C95.6998 5.81074 92.4998 6.81074 89.2998 7.91074L90.4998 11.5107C91.5998 11.1107 92.7998 10.7107 93.8998 10.4107C93.5998 12.7107 93.6998 14.6107 94.0998 15.9107C94.4998 17.0107 95.3998 18.5107 96.8998 20.5107C98.3998 22.5107 99.2998 24.1107 99.5998 25.3107C99.9998 26.5107 99.2998 27.6107 97.7998 28.7107L98.5998 32.3107C99.8998 31.6107 100.8 31.1107 101.3 30.6107C102.8 29.1107 103.3 27.2107 102.7 24.8107C102.4 23.5107 101.7 22.0107 100.7 20.3107C98.5998 16.8107 97.4998 14.8107 97.2998 14.2107C96.9998 13.0107 96.9998 11.4107 97.5998 9.31074C98.2998 9.11074 98.9998 8.91074 99.7998 8.71074Z" fill="#B41E8E"/>
<path d="M133.4 4.81071L133.5 1.01071C125.4 0.910714 117.4 1.51071 109.4 2.81071L110 6.51071L111.6 6.21071L112 8.81071C113.3 8.61071 114.6 8.41071 115.9 8.21071C116.7 8.11071 117.4 8.61071 118.2 9.71071C118.7 10.5107 119 11.2107 119.1 11.7107C119 11.7107 118.9 11.7107 118.8 11.7107C117.5 11.8107 116.4 12.4107 115.4 13.5107C114 15.0107 113.5 17.0107 113.9 19.4107C114 20.2107 114.2 20.9107 114.5 21.4107C115.1 22.6107 115.9 23.6107 116.9 24.2107C117.9 24.9107 118.8 25.2107 119.8 25.1107C120.7 25.0107 121.8 24.4107 123.1 23.3107L121.8 19.5107C120.6 20.3107 119.8 20.7107 119.4 20.7107C119 20.7107 118.5 20.6107 118.1 20.2107C117.6 19.8107 117.3 19.3107 117.3 18.8107C117.3 18.6107 117.3 18.4107 117.3 18.2107C117.7 16.8107 118.5 16.0107 119.8 15.9107C121 15.7107 122.2 16.1107 123.3 17.0107C124.3 17.8107 125.2 18.7107 126.1 19.7107C127.3 21.1107 127.8 22.3107 127.8 23.3107L127.9 26.0107L131 25.9107L130.9 4.51071C131.7 4.71071 132.5 4.81071 133.4 4.81071ZM127.6 16.2107C126 14.0107 124.4 12.8107 122.9 12.2107C122.6 9.31071 121.2 6.91071 118.6 5.31071C121.4 5.01071 124.3 4.81071 127.2 4.71071L127.6 16.2107Z" fill="#B41E8E"/>
<path d="M140.7 5.11074L141 1.31074C138.2 1.11074 135.3 1.01074 132.5 1.01074V4.81074L135.1 4.91074L134.5 26.3107C135.4 26.3107 136.4 26.3107 137.3 26.4107L138.5 5.11074H140.7Z" fill="#B41E8E"/>
<path d="M162 8.51079L162.9 4.81079C155.5 3.01079 147.9 1.81079 140.2 1.31079L139.9 5.11079C145.4 5.51079 150.9 6.21079 156.3 7.31079L154.1 18.1108C154 17.9108 153.9 17.7108 153.9 17.5108C152.4 13.7108 150 11.6108 146.9 11.1108C145.3 10.9108 143.8 11.5108 142.6 12.7108C141.4 13.9108 140.7 15.6108 140.6 17.6108C140.5 19.3108 140.7 20.8108 141.3 22.0108C141.9 23.4108 142.8 24.3108 144 24.7108C144.3 24.8108 144.5 24.9108 144.7 24.9108L145.3 25.0108C146.2 25.1108 147.1 25.0108 148 24.5108L147.7 20.4108C146.9 20.8108 146.3 20.9108 145.9 20.8108C145.3 20.7108 144.8 20.4108 144.4 19.8108C144 19.2108 143.9 18.5108 144 17.7108L144.1 17.0108C144.7 15.6108 145.6 15.0108 146.8 15.1108C148 15.3108 149.1 16.0108 150.1 17.3108C150.8 18.2108 151.5 19.5108 152 21.2108C152.6 23.1108 152.8 24.6108 152.6 25.7108L152.1 28.0108C153.1 28.2108 154.1 28.4108 155.1 28.6108L159.9 7.81079L162 8.51079Z" fill="#B41E8E"/>
<path d="M181 14.8107L182.5 11.3107C175.9 8.51074 169 6.21074 162 4.51074L161.1 8.21074L163.7 8.81074C164.9 10.0107 165.7 11.3107 166.2 12.6107C166.5 13.2107 166.6 14.1107 166.6 15.3107C166.6 16.4107 166.5 17.4107 166.3 18.1107C166 18.7107 165.7 19.4107 165.1 20.1107C163.7 22.3107 162.6 23.3107 161.7 23.0107C161.2 22.9107 160.7 22.4107 160.3 21.7107L159.6 20.1107L158.4 24.7107C158.7 25.1107 158.9 25.5107 159.1 25.7107C159.9 26.5107 160.5 27.0107 160.9 27.1107C162.5 27.6107 164.3 26.6107 166.1 24.4107C167.3 23.0107 168.5 21.6107 169.7 20.2107C170.4 19.4107 171.1 19.1107 171.8 19.3107C172.5 19.6107 172.7 20.5107 172.4 22.0107L168.5 32.6107L171.4 33.7107L179.4 14.1107L181 14.8107ZM174.3 16.7107C174 16.0107 173.5 15.5107 172.8 15.3107C172 15.0107 171 15.1107 170 15.7107C170.1 13.7107 169.9 12.0107 169.3 10.5107C171.5 11.2107 173.7 11.9107 175.8 12.7107L174.3 16.7107Z" fill="#B41E8E"/>
<path d="M197 22.9108L198.9 19.7108C193.3 16.3108 187.4 13.3108 181.3 10.8108L179.9 14.2108L183.7 15.8108C184.5 16.8108 184.8 17.7108 184.8 18.2108C183.5 17.7108 182.3 17.8108 181.3 18.2108C180.1 18.7108 179.2 19.7108 178.6 21.1108C178.1 22.4108 177.9 23.6108 178.1 24.8108C178.3 26.0108 178.9 26.9108 179.7 27.6108L179.9 27.7108L180.2 27.8108C180.9 28.2108 181.9 28.2108 183.1 27.9108L183.9 23.9108C182.9 24.2108 182.3 24.2108 181.9 24.0108C181.4 23.7108 181.3 23.3108 181.6 22.7108C181.7 22.6108 181.7 22.5108 181.7 22.4108C182.2 21.6108 183 21.5108 183.9 22.0108C184.6 22.3108 185.2 22.9108 185.6 23.5108C186 24.1108 186.3 25.2108 186.6 26.7108C186.8 27.4108 186.9 28.5108 187.1 30.0108C188 30.4108 188.9 30.8108 189.8 31.2108L195.3 21.8108L197 22.9108ZM190 24.8108C190 24.8108 189.9 24.6108 189.7 24.3108C189.6 24.1108 189.5 23.9108 189.6 23.6108C189 22.1108 188.6 20.9108 188.2 20.2108L188.3 20.0108C188.6 19.5108 188.7 18.8108 188.6 17.9108V17.8108C190 18.5108 191.4 19.3108 192.8 20.0108L190 24.8108Z" fill="#B41E8E"/>
<path d="M203.4 27.0107L205.5 24.0107C203.9 22.9107 203 22.3107 202.8 22.2107C200.9 20.9107 198.9 19.7107 196.9 18.5107L195 21.7107C196.3 22.5107 197.7 23.3107 199 24.1107L191 36.8107C191 35.8107 190.8 34.9107 190.5 34.0107C190.4 33.8107 190.3 33.6107 190.2 33.5107C191.5 31.2107 192.1 29.0107 191.8 27.0107C191.7 26.5107 191.6 26.2107 191.3 26.1107C190.8 25.8107 189.9 26.1107 188.7 27.0107C188.7 28.8107 188.4 30.2107 187.9 31.2107C187.9 31.1107 187.9 31.2107 187.7 31.5107C187 31.1107 186.2 31.0107 185.2 31.0107C183.7 31.0107 182.5 31.8107 181.7 33.4107C181.1 34.5107 180.9 35.6107 180.9 36.6107C181 38.3107 181.7 39.4107 183 39.9107L185.7 37.6107C184.4 36.7107 184 35.9107 184.4 35.1107C184.5 34.9107 184.9 34.8107 185.4 34.8107C185.8 34.9107 186.2 35.0107 186.4 35.1107C186.8 35.3107 187.1 35.7107 187.3 36.3107C188 37.9107 188 40.0107 187.1 42.8107L189.5 44.3107L201.7 26.1107L203.4 27.0107Z" fill="#B41E8E"/>
<path d="M220.7 41.3106L223.4 38.6106C217.5 32.9106 211.2 27.6106 204.3 23.1106L202.2 26.2106C208.9 30.6106 215.1 35.7106 220.7 41.3106ZM211.7 47.2106C212.9 46.0106 213.7 44.4106 214.2 42.5106C215.3 38.6106 214.5 35.6106 212 33.5106C210.8 32.5106 209.4 32.0106 208.1 32.1106C206.5 32.1106 205.2 32.9106 204.2 34.2106C203.7 34.9106 203.4 35.6106 203.1 36.4106C202.6 38.6106 202.9 40.2106 204.3 41.3106C205.6 40.7106 206.8 40.2106 208.1 39.6106L207.1 39.1106C206.9 38.9106 206.7 38.5106 206.7 38.0106C206.7 37.5106 206.8 37.0106 207.1 36.7106C207.8 35.9106 208.6 35.8106 209.6 36.7106C210.2 37.2106 210.7 38.0106 210.9 38.9106C211.1 39.8106 211.1 40.9106 210.7 42.1106C210.3 43.4106 209.8 44.4106 209.1 45.2106C209 45.4106 208.8 45.5106 208.5 45.7106C205.8 48.0106 203.3 48.5106 201.1 47.1106L200.7 46.8106C200.4 46.5106 200.1 46.1106 199.8 45.6106C199.5 45.0106 199.3 44.5106 199.4 44.1106C199.9 40.2106 200.3 37.0106 200.8 34.6106L197.2 36.1106C196.5 39.8106 196.2 42.5106 196.2 44.3106C196.2 45.8106 196.4 47.0106 196.8 47.9106C197.2 48.8106 197.9 49.6106 198.8 50.4106C200.1 51.5106 201.7 52.0106 203.5 51.9106C205.3 51.8106 207.2 51.0106 209.2 49.5106C209.9 49.0106 210.7 48.2106 211.7 47.2106Z" fill="#B41E8E"/>
<path d="M250.5 65.4107C250.8 62.0107 250.8 59.5107 250.6 57.9107C250.2 55.2107 249.3 52.8107 247.9 50.8107L247.4 50.1107C246.8 49.5107 246.4 49.0107 246.1 48.7107C243.9 46.4107 241.4 45.2107 238.9 45.0107C236.3 44.8107 233.7 45.7107 231.4 47.6107L229.8 45.7107L227 48.2107L228.5 50.0107L212.2 63.7107C212.9 64.5107 213.5 65.3107 214.1 66.1107L230.8 52.9107L232.4 54.9107L235.4 52.6107L233.8 50.5107C235.1 49.5107 236.2 49.0107 237.2 48.9107C240.1 48.7107 242.6 50.0107 244.6 52.9107C246.3 55.3107 247.2 59.4107 246.8 64.9107C248.1 65.1107 249.3 65.2107 250.5 65.4107Z" fill="#B41E8E"/>
<path d="M243.2 71.5107L246.5 69.7107C245.6 67.9107 244.5 66.1107 243.5 64.4107L242 65.3107C242.5 63.8107 242.5 62.5107 241.7 61.4107C241.3 60.7107 240.6 60.2107 239.7 59.9107C238.8 59.6107 237.9 59.5107 237.1 59.7107C237.9 58.0107 237.9 56.3107 237.1 54.7107C236.2 53.3107 235.1 52.0107 234.1 50.7107L231.1 53.0107C231.9 54.1107 232.8 55.1107 233.6 56.3107C233.9 56.8107 234 57.4107 233.8 58.2107C233.6 59.0107 233.2 59.6107 232.6 60.0107C230.7 61.4107 229.4 61.5107 228.7 60.6107C228.5 60.3107 228.4 59.9107 228.4 59.5107C228.4 59.4107 228.7 58.5107 229.1 57.0107L225.2 60.0107C224.5 61.4107 224.5 62.5107 225.2 63.5107C226.1 64.7107 227.5 65.2107 229.4 64.9107C229.1 65.5107 228.9 66.0107 228.7 66.2107C228.3 67.3107 228.3 68.2107 228.8 68.9107C229.3 69.6107 229.9 70.1107 230.7 70.3107C231.1 70.4107 231.5 70.4107 231.8 70.4107L235.9 67.9107C234.7 67.5107 234 67.4107 233.9 67.3107C233.5 67.2107 233.3 67.0107 233.1 66.7107C233 66.5107 232.9 66.4107 232.9 66.2107C232.8 65.3107 233.5 64.4107 234.8 63.6107C235.4 63.2107 236.1 63.0107 236.8 63.1107C237.5 63.2107 238 63.5107 238.4 64.0107C238.9 64.7107 238.8 65.5107 238.2 66.5107C237.8 67.3107 237.1 68.0107 236.2 68.6107L221.9 77.2107C222.4 78.1107 223 78.9107 223.4 79.8107L242.2 69.6107L243.2 71.5107Z" fill="#B41E8E"/>
<path d="M243.8 92.0106C244 93.5106 243.7 94.4106 243 94.6106C242.5 94.8106 242.1 94.8106 241.7 94.6106C241.5 94.5106 241.3 94.1106 241 93.2106L237.3 94.5106C237.3 94.8106 237.3 95.1106 237.4 95.4106C237.8 96.6106 238.6 97.4106 239.8 97.8106C241 98.2106 242.3 98.2106 243.9 97.7106C246.1 97.1106 247.4 95.7106 247.8 93.8106C247.9 93.3106 247.9 92.7106 247.8 92.1106C247.8 92.0106 247.7 91.4106 247.6 90.4106L251 89.2106C251.8 91.6106 252.7 94.1106 253.3 96.5106L256.9 95.5106C254.3 86.3106 250.6 77.3106 246 68.9106L242.7 70.7106L243.4 72.0106L241.3 73.1106C242 74.4106 242.4 75.4106 242.4 75.8106C242.4 76.5106 242.1 77.0106 241.5 77.4106C241.1 76.8106 240.6 76.4106 240 76.1106C239.3 75.7106 238.5 75.6106 237.8 75.8106C237.1 76.0106 236.5 76.2106 236.2 76.4106C235.4 76.8106 234.8 77.4106 234.3 78.2106C233.6 79.3106 233.5 80.4106 234 81.4106C234.1 81.6106 234.2 81.8106 234.4 82.0106L237.8 81.5106C237.5 80.9106 237.3 80.5106 237.3 80.4106C237.2 80.0106 237.3 79.8106 237.5 79.6106C237.7 79.5106 237.9 79.5106 238.2 79.7106C238.5 79.9106 238.7 80.1106 238.8 80.5106C239 81.2106 239 82.0106 238.6 82.8106C238.2 83.6106 237.6 84.2106 236.7 84.6106L236.3 84.7106C236 84.1106 235.5 83.4106 234.7 82.9106C233.3 82.0106 231.8 81.9106 230.4 82.6106C229.4 83.1106 228.5 83.8106 227.9 84.7106C226.9 86.1106 226.9 87.4106 227.7 88.7106L231.3 88.5106C230.8 87.0106 230.9 86.1106 231.8 85.7106C232 85.6106 232.4 85.7106 232.8 86.1106C233.1 86.4106 233.3 86.7106 233.4 87.0106C233.6 87.4106 233.6 88.0106 233.5 88.6106C233.1 90.3106 231.9 92.0106 230 93.6106C230.3 94.5106 230.7 95.4106 231 96.3106L243.9 91.7106L243.8 92.0106ZM236 91.1106C236.7 90.1106 237.1 88.9106 237.4 87.6106C239.1 86.9106 240.4 85.9106 241.4 84.7106C242.5 83.4106 243 82.0106 242.9 80.5106L243.3 80.3106C244.8 79.6106 245.7 78.5106 245.9 76.9106C246.6 78.3106 247.2 79.8106 247.9 81.3106C247.3 81.5106 246.8 81.6106 246.2 81.9106C245 82.4106 244 83.3106 243.2 84.3106C242.3 85.6106 242.1 87.0106 242.6 88.4106L236 91.1106ZM246.5 87.1106C246.3 86.7106 246.4 86.2106 246.7 85.8106C247 85.4106 247.4 85.0106 247.9 84.8106C248.4 84.6106 248.9 84.6106 249.4 84.7106L249.8 85.8106L246.5 87.1106Z" fill="#B41E8E"/>
<path d="M255.3 103.811L259 103.011C258.3 100.211 257.7 97.5107 256.8 94.7107L253.2 95.8107L253.9 98.3107L233.3 103.911L234 106.611L254.8 101.511L255.3 103.811Z" fill="#B41E8E"/>
<path d="M158.3 122.911C157.6 123.611 156.9 124.711 157.4 126.111C157.6 126.411 157.8 126.711 157.9 126.911H162.4C163.9 127.411 164.7 128.911 165.8 129.811C170 132.911 172.2 131.611 176.8 130.111C176.9 129.911 176.9 129.811 177 129.611V129.411C171.8 128.211 168.7 130.111 164.6 127.411C164.7 127.211 164.7 127.111 164.8 126.911L181.5 125.411H182C182.3 125.711 182.6 126.011 182.9 126.211C183.1 126.311 183.3 126.311 183.4 126.411C183.6 126.311 183.8 126.311 183.9 126.211C184.1 125.811 184.3 125.411 184.4 125.011C183.7 124.011 183.2 123.511 182.2 122.811C177.8 124.611 167.7 125.611 161.3 124.111C160.2 123.911 159.8 123.111 158.3 122.911Z" fill="black"/>
<path d="M161.7 103.111V102.611C159.9 101.511 158.5 100.811 155.2 100.911C154.5 101.211 153.8 101.511 153 101.711C152.6 102.111 152.3 102.511 151.9 102.911C151.9 102.911 159.9 103.211 161.4 103.211C161.6 103.211 161.7 103.211 161.7 103.111Z" fill="black"/>
<path d="M163.9 110.611C163.7 109.511 163.6 109.211 163.2 108.211C161.6 107.811 160.5 107.011 159.4 106.711C158.1 106.911 156.8 107.011 155.4 107.211C153.7 107.411 152.5 106.811 151.1 106.411C150.9 106.611 150.7 106.711 150.6 106.911V107.711C151.2 108.111 158.7 112.711 153.5 112.811C153.6 113.011 153.6 113.311 153.7 113.511C158.5 114.711 161.8 113.711 163.9 110.611Z" fill="black"/>
<path d="M174.7 119.211C174.4 118.911 174.1 118.611 173.8 118.411C173 118.311 172.1 118.311 171.3 118.211C170 118.311 168.7 118.311 167.3 118.411C167.2 118.611 167.2 118.811 167.1 119.111L170.7 121.111C172.5 120.911 174 120.311 174.7 119.211Z" fill="black"/>
<path d="M181 109.911C181.8 110.111 181.8 110.111 182.1 110.711V111.911C181.9 112.011 181.7 112.011 181.6 112.111C180.7 111.511 180.4 110.811 181 109.911ZM188.7 114.311C189.2 113.211 188.2 111.911 188.9 110.611C189.6 110.111 190.2 109.611 190.9 109.111C189.3 106.311 186.5 107.711 183.9 106.711C183.2 107.311 181.9 107.211 181 107.711C180.3 108.411 179.7 109.211 179 109.911C180.6 113.311 183.3 115.511 188.7 114.311Z" fill="black"/>
<path d="M131.9 124.211C132 125.311 132.1 126.311 132.3 127.411C131.9 128.611 130.1 129.311 129.8 130.811C129.3 132.811 130.6 134.011 131.2 135.011C131.6 135.111 131.9 135.111 132.3 135.211C132.5 135.111 132.8 135.011 133 134.911C133.1 132.911 133.1 131.011 133.2 129.011C133.4 128.811 133.6 128.711 133.7 128.511C135.6 129.011 135.8 130.311 138.4 130.411C139 129.611 139.2 128.411 138.8 127.011C137.6 124.811 134.3 124.911 133.2 122.511V122.311C135.4 121.411 138.3 124.111 139.3 125.511H140C140.1 125.411 140.2 125.411 140.4 125.311C142.6 118.311 135.3 117.911 133.2 113.511C132.8 113.411 132.4 113.311 131.9 113.211C130.1 115.811 131.3 117.511 131.9 120.111V124.211Z" fill="black"/>
<path d="M197.2 127.711C194.5 128.711 192.8 128.711 192.9 132.411C194.2 133.411 195.4 134.311 196.7 135.311C197.4 136.211 197.3 138.111 198.5 138.511C201.6 139.511 203.5 134.311 203.7 132.311C202.2 129.811 201.2 127.811 197.2 127.711Z" fill="black"/>
<path d="M212.5 139.211C212.9 139.411 213.3 139.711 213.8 139.911C214.3 139.411 214.5 139.511 214.7 138.711C215.3 136.911 213.2 132.211 210.9 132.111C209.5 133.211 207.5 133.711 205.1 133.411C204.2 134.511 202.5 138.411 203.8 140.311C204.1 140.711 204 140.611 204.5 140.811C205.2 140.311 205.4 140.011 205.6 138.911C206 138.811 206.3 138.711 206.7 138.611C207.3 139.711 207.8 140.311 208.7 141.111C209 141.011 209.3 141.011 209.6 140.911L210 140.211C209.9 139.011 209.8 137.711 209.6 136.511C209.8 136.311 210.1 136.211 210.3 136.011C211.4 136.811 212.1 137.911 212.5 139.211Z" fill="black"/>
<path d="M128.3 142.411C128.9 142.611 129.3 142.411 129.9 142.211C130.5 141.411 130.9 140.811 131 139.511C131.3 139.411 131.6 139.411 131.9 139.311C132.2 141.311 134.9 145.411 136 141.811C136.4 140.511 135.6 137.011 134.9 136.411C133.9 136.211 133 136.111 132 135.911C130.5 135.211 129.3 133.311 127.5 133.011C125.4 134.811 122.7 136.111 122.1 139.211C123.5 141.211 125.7 138.911 127 138.211C127.7 138.911 127.3 139.911 127.2 141.411C127.6 141.811 127.9 142.111 128.3 142.411Z" fill="black"/>
<path d="M204.4 126.611C204.3 126.811 204.6 126.711 204.2 126.911C204.2 126.811 204.3 126.711 204.4 126.611ZM202.4 127.911C204.2 129.711 204.2 132.411 208 132.511C208.1 132.411 208.2 132.411 208.4 132.311C208.6 131.911 208.8 131.511 208.9 131.111C208.5 130.511 208.1 129.911 207.6 129.211V129.011C208.8 128.811 209.4 129.511 210.5 129.811H210.7C211.6 127.911 209.8 126.511 208.7 125.411C206.7 125.411 206 125.711 204.9 126.211H204.7V126.011C205.3 124.911 206 124.611 207.4 124.111C208.4 124.411 209.3 124.811 210.3 125.111C212.8 126.411 212.3 131.011 218.8 129.111C219.6 128.811 219.9 128.511 220.2 127.711C221.1 125.411 218.7 124.711 218.2 123.311C218 122.011 217.7 120.711 217.5 119.411C216.9 119.011 216.3 118.611 215.7 118.211C212.5 118.511 212.1 120.611 209.9 121.611H209.7C209.6 120.511 209.5 119.411 209.3 118.211V117.911H208.6C207 119.211 205.5 120.511 203.9 121.811C203.5 124.111 202.9 126.011 202.4 127.911Z" fill="black"/>
<path d="M188 102.311C187.1 100.911 185.7 100.711 183.1 100.811C181.8 101.411 180.4 101.211 179.9 102.511L187.6 102.811C187.8 102.611 187.9 102.511 188 102.311Z" fill="black"/>
<path d="M139.4 141.111C141.3 140.711 141.4 138.311 142.8 137.411C144.2 136.511 145.3 136.911 146 135.411C146.1 134.811 146.1 134.311 146.2 133.711C144.6 132.111 141.6 131.211 138.3 131.211C137.9 131.711 137.5 132.111 137 132.511H136.3C136.4 131.011 136.1 130.311 134.9 130.011C134.7 130.211 134.5 130.311 134.4 130.511C134.5 133.111 136.5 141.711 139.4 141.111Z" fill="black"/>
<path d="M120.6 128.111C121.2 130.011 125.9 130.511 128.5 130.511C129.4 129.311 130.3 128.011 131.2 126.811C131.8 124.811 129.7 120.111 127.4 119.711C126.1 120.411 120 126.111 120.6 128.111Z" fill="black"/>
<path d="M144.7 168.511C147 168.811 149.3 170.011 151 171.011V188.411C150.7 188.511 150.4 188.511 150.1 188.611C147.7 185.211 149.6 178.311 147.6 173.811C146.8 172.211 144.5 170.211 144.7 168.511ZM124.7 157.411C124.1 158.211 124 159.711 124 161.111C127.1 163.411 133.4 163.111 135.7 166.211C134.8 169.711 129.3 172.711 132.8 178.711C135.6 183.511 142.2 181.211 142 175.011C142.3 174.911 142.6 174.911 142.9 174.811C146.5 180.311 143.4 191.811 135.3 186.111C131.3 183.311 130.1 176.011 128.8 170.811C128.6 169.011 128.3 167.211 128.1 165.411C127.8 164.911 127.8 165.011 127.4 164.711C126.6 165.111 126 165.411 125.6 166.211C124.6 169.311 126.1 176.011 126.9 178.811C128.6 185.411 132 198.411 142.5 194.811C143.9 193.711 145.4 192.711 146.8 191.611C149.6 192.711 154.4 201.511 155.1 204.711H156V173.711C156.1 173.611 156.2 173.511 156.4 173.411C157.2 173.511 158.1 173.511 158.9 173.611C159.5 172.711 159.4 171.511 159.4 170.211C156.1 166.911 131.4 157.911 124.9 157.411H124.7Z" fill="white"/>
<path d="M228.8 189.911C228.6 189.711 228.4 189.611 228.3 189.411V189.111C229.8 187.211 232.3 185.511 235 184.711C235.2 184.511 235.4 184.311 235.5 184.011C235.4 183.811 235.4 183.511 235.3 183.311C231.7 182.811 229.5 186.411 225.6 186.811C225.1 186.411 225 186.411 224.9 185.611C228 182.911 230.7 180.311 235.3 179.011C235.4 178.711 235.5 178.311 235.7 178.011C235.5 177.911 235.2 177.811 235 177.711C231.3 176.411 227.5 181.711 223.1 181.911C222.9 181.711 222.7 181.611 222.6 181.411C223.6 177.511 230.7 174.811 235 173.811C235.1 173.511 235.1 173.211 235.2 173.011C230.1 170.911 226.6 178.011 222.1 175.511V175.011C224.6 172.911 227.7 170.111 231.3 169.111C233.1 169.011 234.9 168.911 236.7 168.811C237.2 168.511 237 168.811 237.2 168.111C236.6 167.411 235.8 167.111 235.2 166.211C235.3 165.211 235.4 165.011 235.9 164.511C240.3 165.111 242.1 173.111 240.9 178.211C239.7 183.711 235.9 190.011 228.8 189.911ZM226.3 205.511C223.1 207.811 216.8 208.211 212.6 209.411C203.1 212.211 193.6 215.211 185.1 219.011C183.6 219.711 174 224.011 173.6 223.911C172.5 223.111 172.7 211.311 172.7 208.711C172.4 194.111 172.1 179.611 171.8 165.011C175.2 161.811 182.1 160.111 186.7 158.311C196.5 154.411 206.9 150.611 217.6 147.511C222.7 146.411 227.8 145.211 232.9 144.111H233.4C235.1 146.911 231.6 162.411 231.4 166.911C227.4 169.511 222.1 171.111 220.1 175.511C220.2 177.011 220.9 177.611 221.9 178.211C221.5 179.211 221.2 180.111 220.8 181.111C221 183.311 222.5 182.811 223.5 184.111C223 185.111 222.6 185.811 222.6 187.311C223.2 187.911 224.8 188.511 225.3 189.211C225.4 189.811 225.4 190.311 225.5 190.911C226.3 191.511 227.2 192.011 228 192.611C227.5 196.811 226.9 201.111 226.3 205.511ZM170.2 161.811C168 162.411 162.2 159.211 160.5 158.611C153.9 156.111 143.9 151.511 136.9 150.511C136.8 150.211 136.7 149.811 136.5 149.511C139.1 147.911 142.1 145.211 145.9 144.911C149.7 148.811 150.7 154.811 160.5 153.211C162.1 152.611 163.6 152.111 165.2 151.511C166.2 152.111 166.7 153.411 167.7 153.911C172 156.011 174.1 152.511 175.6 150.711C176.9 151.011 178.1 151.311 179.4 151.511C184.7 152.411 189.7 149.611 191.4 147.011C192.3 145.511 192.6 144.111 193.7 143.011C198.7 143.411 203.3 145.311 206.6 147.411C206.1 148.811 192.6 152.911 190.2 153.811C183.6 156.411 176.9 159.111 170.2 161.811ZM158.7 221.011C149.7 217.711 140.1 214.811 130.5 212.111C128 211.411 120.8 210.611 119.5 209.111C118.7 208.111 116.2 193.511 116.1 191.211C117.7 189.511 118.9 189.211 117.2 186.611C117.3 186.411 117.4 186.311 117.6 186.111H120.7C121.4 185.111 120.7 183.011 121.2 182.211C121.8 181.311 123.4 181.811 124.1 180.711C124.7 179.211 122.8 177.511 121.8 176.811V176.111C122.6 175.711 123.3 175.411 123.8 174.611C123.9 174.211 123.9 173.711 124 173.311C120.9 170.111 115.1 170.411 111 168.111C109.7 161.111 108.4 154.211 107 147.211C107.2 147.011 107.4 146.711 107.5 146.511C114 146.811 120.1 148.811 125.7 150.411C135.8 153.311 145.4 155.811 154.7 159.311C159 161.111 163.2 162.911 167.5 164.711C169.8 167.811 168 174.211 168.8 178.911C169.1 193.911 169.4 208.911 169.7 223.911C167.3 224.911 161.3 221.911 158.7 221.011ZM115 188.911C113.7 189.311 111.7 188.311 110.7 187.911C102.6 184.711 98.6 173.511 106.9 167.311C107.1 167.411 107.3 167.411 107.4 167.511V169.011C107.7 169.411 119.8 171.811 121.8 173.011V173.511L120.9 174.211C117.2 175.411 113 172.011 108.8 173.011C108.6 173.111 108.3 173.211 108.1 173.311C108.2 174.011 108.1 173.711 108.5 174.311C113.8 175.211 118.7 175.611 121.6 178.711C120.9 182.111 115.5 178.911 113.3 178.511H108.8C108.7 178.611 108.7 178.711 108.6 178.811C110 180.911 117.3 180.311 119 183.411C119.1 183.611 119.1 183.711 119.2 183.911C118.9 184.111 118.6 184.411 118.3 184.611C116.9 185.011 112.7 182.911 109.1 182.911C109 183.011 109 183.111 108.9 183.211V183.511C111.2 184.511 114.8 185.811 115.7 188.111C115.6 188.511 115.3 188.711 115 188.911ZM92.9 217.811H92.7C91 214.311 92 204.011 92 199.311C91.7 187.311 91.4 175.311 91.1 163.211C95 160.511 100.6 159.811 104.6 157.111H105.1C106.2 158.811 106.8 162.211 106.7 164.911C102.1 168.511 97.1 177.911 102.4 184.611C103.8 186.311 106.4 188.111 108.7 189.011C109.8 189.411 111.5 189.511 112.1 190.311C113.4 196.511 114.6 202.711 115.9 208.811C114.9 210.111 95.6 217.511 92.9 217.811ZM90.5 159.111C89.1 151.911 97.7 147.111 101.8 144.111C102 144.211 102.2 144.211 102.3 144.311C103.6 146.411 104.5 151.011 104.5 153.911C100.8 156.311 95.6 157.911 91.2 159.511C91 159.311 90.8 159.211 90.5 159.111ZM87.8 159.811C84 158.111 71.3 154.911 69.5 152.211C71.2 149.011 73.4 147.011 76.5 145.111C81.7 146.811 88.4 153.011 88.5 159.311C88.3 159.411 88.1 159.611 87.8 159.811ZM55.5 180.511C56.7 178.711 59.7 178.511 61.8 177.511H62.7C64.1 179.711 63.7 185.011 63.6 188.311C63.5 188.411 63.5 188.411 63.4 188.511C62.3 188.111 56.2 181.611 55.5 180.511ZM77 213.711C66.3 209.711 54.5 207.011 42.7 204.411C42 203.211 39.3 188.211 40 187.011C41.2 185.011 45.4 185.911 46.5 182.411C47.9 183.011 47.4 185.111 48.7 185.811C50.1 186.011 51.5 186.311 52.8 186.511C56.6 187.611 60.2 190.211 62.3 192.911C64.2 195.411 65.4 201.811 68.4 203.211C68.6 203.311 68.8 203.411 68.9 203.511H69.1C70.5 201.211 69.3 181.811 69.3 177.011C72 175.511 75.7 178.511 76.7 180.411C74.8 182.411 71.4 181.211 70.6 184.411C68.8 191.511 77.1 192.411 80.1 188.611C85.4 181.811 76.5 170.911 70 170.411C69.8 170.211 69.6 169.911 69.5 169.711C69.6 169.511 69.7 169.411 69.9 169.211C74.7 170.111 78.3 172.811 82.7 174.111C82.9 173.911 83.2 173.811 83.4 173.611C83.3 172.411 83.2 171.211 83 170.111C75.4 164.911 63.7 163.211 53.3 160.711C50.4 160.111 47.5 159.511 44.7 158.811C44.5 159.011 44.3 159.111 44.2 159.311C45.2 165.611 57.1 165.411 62.7 167.611C62.8 167.811 62.8 168.111 62.9 168.311C61.4 170.011 52.6 172.511 50 173.411C48.9 172.611 47.8 171.811 46.8 171.011C47.1 169.711 47.9 169.311 47.5 168.011C46 164.811 39.9 163.611 35.8 162.911C33.6 159.211 34.3 152.611 33.1 148.211C33.3 147.911 33.6 147.611 33.8 147.411C43.4 150.111 53 151.311 62.2 154.011C70.7 156.511 79 160.211 87 162.411C89.1 165.211 87.4 170.811 88.1 175.011C88.3 189.111 88.5 203.211 88.6 217.311C86.8 218.311 79.4 214.611 77 213.711ZM38.2 184.911C30.5 184.911 30.8 179.811 29.4 173.811C29 172.011 27.9 169.611 29 167.711C29.9 166.211 31.6 166.111 33.3 165.311C38.7 165.311 42.4 166.011 45 168.511C44.8 169.211 44.8 169.211 44.5 169.711C40.8 169.411 36.8 168.011 32.8 168.911C32.7 169.211 32.6 169.511 32.4 169.711V169.911C34.2 170.711 36.8 169.911 39.2 170.411C41.9 170.911 46 172.511 47.3 174.411C47 174.711 46.7 175.111 46.4 175.411C42.5 176.011 38 173.011 34.4 174.711C33.9 175.011 34.1 174.711 33.9 175.411V175.611C37.3 177.511 43.5 176.011 45.4 179.311C45 179.711 44.7 180.111 44.3 180.511C41.1 181.011 38.1 180.111 34.9 180.011H34.7C33.6 182.111 40.6 182.311 43 182.711C43.2 183.111 43.4 183.611 43.5 184.011C42.3 184.911 40.6 184.911 38.2 184.911ZM53.7 148.011C56.7 145.411 61 144.811 64.8 142.911H65.7C66.9 144.911 66.5 149.011 67.3 151.211L66.6 152.011C62.5 150.911 58.4 149.811 54.4 148.611C54.2 148.411 53.9 148.311 53.7 148.111V148.011ZM102.2 134.111C101.6 139.211 95.7 142.411 92.8 145.711C91.3 147.611 89.8 149.411 88.3 151.311C86.1 150.011 84.9 146.911 83.3 145.111C79.9 141.111 73.6 138.011 72.9 131.611C73 131.511 73.1 131.511 73.3 131.411C77.6 132.611 80.4 136.511 86.4 137.611C93.7 139.011 97.6 135.211 102.2 134.111ZM66.2 116.811C65.2 114.211 63.2 109.811 64 105.811C65 101.211 69.8 99.5108 71.7 95.9108C73.3 92.8108 71.9 88.1108 73 84.4108C74.7 84.9108 75.6 86.6108 77 87.4108C79.3 88.9108 82.5 90.1108 85.6 90.8108C94.2 92.6108 105.5 89.5108 111.3 93.7108C115 96.4108 114.4 103.711 113.6 109.011C111.9 120.811 105.8 130.611 95.8 134.611C81.2 140.611 70 126.411 66.2 116.811ZM63.4 118.311C59.7 116.611 55.2 112.411 55.3 107.211C55.9 106.711 56.5 106.211 57.1 105.711C60.3 106.211 63.7 114.211 63.9 118.011C63.7 118.111 63.5 118.211 63.4 118.311ZM117.1 103.011H118C121.7 106.411 117.9 113.311 115.3 115.111C114.9 114.811 114.8 114.811 114.6 114.411C115.8 110.311 115.1 106.011 117.1 103.011ZM114.3 143.311C114.5 143.111 114.7 142.811 114.8 142.611C117.6 143.011 122.5 144.511 124.3 146.111H124.7V146.811C121.1 146.611 116.7 145.511 114.3 143.911V143.311ZM171.6 149.511V150.011C171.2 150.311 170.9 150.611 170.5 150.811C170.2 150.911 169.9 150.911 169.6 151.011C169.3 150.611 169 150.211 168.7 149.811C169.1 149.511 169.4 149.111 169.8 148.811C171 148.911 171 149.111 171.6 149.511ZM156.7 141.711C155.5 140.211 152.9 136.711 154.2 134.111C157.1 134.711 161.3 138.711 165.3 139.811C174.8 142.411 179.3 137.311 184.9 135.411C186.4 137.411 182.6 141.311 181.5 142.311C175.8 147.711 161.6 147.811 156.7 141.711ZM147 118.611C145.8 115.411 144.9 109.411 146.5 105.811C148.5 101.211 154.4 100.211 158.7 97.7108C163.6 94.9108 166.6 91.5108 169.9 87.1108H170.4C171.2 88.2108 172 89.2108 172.7 90.3108C174.4 92.3108 177.1 94.1108 179.5 95.4108C184.5 98.1108 191 97.8108 194.1 102.311C197 106.511 196.2 113.411 194.5 118.111C190.9 127.611 184.3 137.211 172.6 139.011C159.9 141.011 149.9 126.711 147 118.611ZM200 105.011H200.9C203.5 108.311 201.1 111.911 199.8 114.811C199.2 115.311 198.6 115.811 198 116.311C197.8 116.211 197.5 116.111 197.3 116.011C197.6 111.911 197.7 107.211 200 105.011ZM144.1 117.111C143.9 117.211 143.6 117.311 143.4 117.411C140.8 115.811 134.4 108.711 140 106.111C140.3 106.211 140.6 106.211 140.9 106.311C143.7 107.611 144.2 113.211 144.1 117.111ZM236.2 162.511C234.1 159.511 237.9 145.511 238 140.611C237.8 140.511 237.6 140.411 237.5 140.311C236 139.911 233.4 140.911 231.9 141.311C225.1 142.911 218.3 144.411 211.6 146.011C209.6 145.011 207.5 144.111 205.5 143.111C201.4 141.611 197.2 140.111 193.1 138.611C192.7 137.511 192.3 136.511 191.8 135.411C191 134.111 189.6 133.411 189.3 131.711C192.4 127.411 195.2 122.011 198.5 117.911C198.7 117.811 198.9 117.811 199 117.711C199.1 117.811 199.2 117.811 199.4 117.911C199.8 119.411 200.1 120.811 200.5 122.311C200.8 122.411 201.1 122.411 201.4 122.511C206.9 116.911 210.3 119.811 208.1 108.511H207.1C206.8 110.011 206.2 111.411 204.6 111.711C205.1 110.611 205.6 109.511 206 108.311C206.9 104.911 205.5 101.711 204.7 99.4108C204.5 99.3108 204.3 99.2108 204.2 99.1108C203.3 99.7108 202.7 101.611 202.4 102.811C202 102.911 201.7 103.011 201.3 103.111C201 101.411 203.2 95.6108 203.6 92.8108C205.6 81.0108 193.4 69.8108 185.6 66.7108C164.5 58.3108 144.6 67.5108 138.7 83.2108C136.5 88.9108 135.3 98.0108 138.3 103.811C138.2 104.111 138.2 104.411 138.1 104.611C137.9 104.711 137.7 104.711 137.6 104.811C137 104.111 136.7 103.511 136.3 102.411C136.1 102.311 135.8 102.311 135.6 102.211C133.1 104.011 130.5 109.111 133.1 112.711C135.8 116.511 140.9 118.311 144.8 121.011C147 124.511 149.1 128.011 151.3 131.511C149.8 133.011 147.9 134.611 147 136.611C146.6 137.911 146.2 139.311 145.7 140.611C144.9 142.011 135.2 146.111 133.1 147.011C131.1 146.811 130.3 145.611 129 144.811C125.6 143.311 122.3 141.811 118.9 140.211C117.2 139.511 114.1 139.311 113.1 138.011C111.5 134.911 109.9 131.711 108.2 128.611C109 120.811 119.6 116.611 121.9 109.611C123.3 105.311 120.3 103.311 119.6 101.011C119.7 99.5108 119.7 98.1108 119.8 96.6108C119.9 92.5108 119.8 88.7108 118.9 85.3108C115.7 73.1108 103.4 63.7108 87.4 63.7108C84.6 64.7108 81.2 64.3108 78.6 65.2108C75.9 66.2108 73.4 67.5108 71.2 69.1108C70.4 70.0108 69.5 70.9108 68.7 71.8108C67.5 72.3108 66.3 72.8108 65.1 73.3108C60.7 75.8108 57.5 80.1108 56.1 85.4108C55.3 88.6108 55.3 93.1108 55.9 96.7108C56.2 98.4108 57.3 101.211 56.6 102.911C55.6 104.411 53.4 104.611 52.8 106.811C52.4 108.511 53.3 110.111 53.7 111.211C55 114.511 56.9 117.111 59.6 119.011C63.3 121.511 67.5 121.811 68.4 126.911C66.7 130.211 65.5 134.211 65.5 139.211C61.7 141.811 56.2 142.911 52 144.911C50.6 145.711 49.1 146.611 47.7 147.411C41.5 146.211 35.4 144.911 29.2 143.711C29 144.011 28.8 144.311 28.7 144.511C29.7 150.011 30.6 155.511 31.6 161.011C30 163.211 28.5 165.511 26.9 167.711C25 171.711 26.6 177.311 28.2 180.811C30.3 185.511 34 184.611 36.5 187.411C37.6 193.811 38.7 200.211 39.7 206.611C40.5 207.811 50.4 209.311 52.6 210.011C62 212.711 71.4 215.211 80.1 218.611C82.1 219.411 88.5 223.111 90.7 222.611C97.4 220.111 104.1 217.511 110.8 215.011C112.8 214.211 115.9 212.211 118.7 212.611C132 214.811 144 218.611 155.2 223.011C160.3 225.011 165.4 226.911 170.5 228.911C174.9 226.911 179.3 224.911 183.6 222.811C193.9 218.611 204.1 215.011 215.4 211.711C219.1 210.611 223.2 209.211 227.6 209.011C230.6 204.911 228.8 197.011 231 192.311C232.3 190.111 236.3 189.411 238 187.411C243.6 181.411 246.7 165.611 236.2 162.511Z" fill="black"/>
<path d="M206.2 173.911C204.8 173.311 203.3 172.711 201.9 172.011C197.8 169.111 200.3 164.811 191.1 164.911C185.7 167.611 184.6 170.811 190 174.511C196 178.711 212.4 182.711 209.4 192.911C208.8 193.211 208.8 193.411 207.8 193.411C204.5 190.311 195.5 188.711 192 193.111C189.3 196.411 192.4 200.711 195.2 201.711C205.7 205.311 218.4 196.311 215.7 185.711C214.3 180.411 210.6 176.411 206.2 173.911Z" fill="#ED1C24"/>
<path d="M80.7999 102.011C80.8999 101.711 80.9999 101.311 81.1999 101.011C80.7999 100.711 80.4999 100.311 80.0999 100.011C78.7999 99.9107 77.5999 99.8107 76.2999 99.7107L73.0999 100.711C72.9999 100.811 72.9999 100.911 72.8999 101.011C72.9999 101.211 72.9999 101.311 73.0999 101.511C76.1999 101.111 78.1999 102.311 80.7999 102.011Z" fill="black"/>
<path d="M99.2 109.011C99.9 109.211 99.7 109.111 100.1 109.511V110.211H99.4C99.1 109.711 99 109.711 99.2 109.011ZM107.2 111.611C106.6 109.811 105.5 109.211 107.6 107.911V107.211C106.7 106.611 105.8 106.011 104.9 105.311H104.4C103.2 106.311 99.1 106.511 97.7 108.011C95.1 112.111 104.3 113.611 107.2 111.611Z" fill="black"/>
<path d="M94.7999 118.611C94.6999 118.211 94.5999 117.811 94.3999 117.411C91.8999 117.011 88.5999 117.011 86.2999 116.711C86.0999 117.011 85.7999 117.311 85.5999 117.511C85.4999 117.711 85.4999 117.811 85.3999 118.011C87.5999 120.211 92.3999 121.111 94.7999 118.611Z" fill="black"/>
<path d="M104.2 100.911V100.111C102.5 99.9108 100.8 99.8108 99.2001 99.6108C98.5001 100.011 98.2 100.211 97.8 100.811V101.511C99.8 102.711 101.7 101.311 104.2 100.911Z" fill="black"/>
<path d="M88.7001 123.011C86.7001 122.711 84.6001 122.411 82.6001 122.211C81.0001 121.811 80.7001 120.711 78.5001 120.711C77.7001 121.711 77.1001 122.411 77.1001 124.111C77.3001 124.311 77.5001 124.411 77.6001 124.611C78.9001 124.411 79.5001 123.311 81.4001 123.811C82.5001 124.111 83.1001 125.111 83.7001 125.811C87.4001 129.611 90.0001 129.811 95.2001 127.711C95.3001 127.611 95.3001 127.511 95.4001 127.411C95.3001 127.211 95.2001 127.111 95.0001 126.911C91.1001 127.211 88.6001 126.911 85.8001 125.711C85.9001 125.411 86.0001 125.111 86.2001 124.911C88.7001 124.811 91.1001 124.711 93.6001 124.611C95.7001 124.011 97.8001 123.511 99.9001 122.911C100.5 123.411 101.1 123.911 101.7 124.411C102.2 124.011 102.2 124.111 102.4 123.411C102.2 123.011 101.9 122.511 101.7 122.111C98.6001 119.711 94.3001 123.911 88.7001 123.011Z" fill="black"/>
<path d="M80.5001 112.911C82.0001 112.211 82.3 110.011 82.8 108.511C82.1 107.511 78.9001 106.111 77.6001 105.811C77.2001 106.111 76.9001 106.511 76.5001 106.811C74.1001 106.511 73.5001 106.211 71.5001 106.811C71.4001 107.311 71.4 107.711 71.3 108.111C71.9 108.511 72.5001 108.711 73.5001 108.811C74.4001 109.911 74.3001 110.011 74.0001 111.711C75.3001 112.511 78.6001 113.911 80.5001 112.911Z" fill="black"/>
<path d="M29.1 257.011L29 255.811L28.8 249.911L30.4 251.111C30.4 251.211 30.5 251.311 30.6 251.411C30.6 251.911 30.7 252.311 30.9 252.511L31.3 252.711C31.4 252.711 31.7 252.711 32 252.811L34.3 255.111H31.1V271.811C30.4 271.311 29.5 270.511 28.6 269.511L28.8 261.111C28.6 260.511 28.4 260.011 28.3 259.711C28 259.111 27.8 258.711 27.5 258.511L22.1 264.011L19 262.811L20.8 260.911C20.9 260.811 21 260.611 21 260.311C21 259.511 20.8 259.111 20.4 259.111C20.1 259.111 19.7 259.211 19.3 259.411C18.9 259.611 18.6 259.711 18.4 259.711C18 259.711 17.6 259.511 17.2 259.211C16.9 258.911 16.7 258.511 16.7 258.011C16.7 257.511 17 256.811 17.7 255.911C18.3 255.211 18.8 254.611 19.3 254.211C20.4 253.411 21.7 253.011 23.3 253.011C24.6 253.011 25.8 253.411 26.9 254.211C27.7 254.811 28.5 255.811 29.1 257.011ZM22.7 259.011L25.5 256.211C24.9 255.711 24.3 255.411 23.7 255.411C22.4 255.411 21.4 255.811 20.7 256.711C21.7 257.011 22.4 257.711 22.7 259.011Z" fill="#00834A"/>
<path d="M28.3 268.811C27.6 268.111 26.5 267.811 25 267.811C24.4 267.811 23.2 267.811 21.2 267.911C20.2 268.011 19.2 267.811 18.3 267.411C17.3 267.011 16.6 266.411 16.1 265.511C15.5 264.511 15.2 263.511 15.2 262.311C15.2 262.011 15.2 261.411 15.3 260.611C15.3 260.411 15.4 260.211 15.4 259.911C15.5 259.711 15.6 259.611 15.7 259.611C15.8 259.611 16.3 260.011 17.1 260.811C16.8 261.411 16.8 262.011 17.1 262.711C17.4 263.211 17.9 263.711 18.7 264.111C18.9 264.211 19.6 264.311 20.6 264.411C21.9 264.511 22.8 264.511 23.1 264.511C24.2 264.611 25 264.711 25.5 264.911C25.9 265.011 26.4 265.211 26.9 265.411C27.9 266.011 28.6 266.611 28.9 267.111C29.7 268.111 30.2 268.911 30.5 269.711C30.7 270.311 30.8 271.311 30.8 272.811C30.2 272.411 29.6999 271.811 29.1999 270.911C28.6999 269.511 28.3 268.811 28.3 268.811Z" fill="#00834A"/>
<path d="M35.5 254.211L35.4 253.711C35.3 252.611 35.2 251.211 35.2 249.411L36.6 250.511C36.7 251.211 36.8 251.811 37 252.311C37.1 252.411 37.2 252.611 37.4 252.711H38.5L40.9 255.111H37.6V272.611L35.2 270.111V258.011C35.2 257.511 35.1 257.211 35.1 257.111C35 256.511 34.7 256.111 34.2 255.711C33.7 255.311 33.2 255.111 32.6 255.111C32.5 255.111 32.3 255.111 32.1 255.111L29.7 252.811C30.8 252.711 31.5 252.611 32 252.611C33.7 252.711 34.9 253.211 35.5 254.211Z" fill="#00834A"/>
<path d="M53.2 255.211V272.411L51.5 270.011L50.6 268.611C49.7 267.211 48.2 266.111 46.2 265.311C45.4 265.011 44.4 264.811 43.2 264.911L40 260.711H41.7C42.8 260.511 43.4 260.311 43.5 260.311C44 260.211 44.6 259.911 45.3 259.511C46.9 258.611 47.7 257.711 47.7 256.711C47.7 256.311 47.5 255.911 47.2 255.611C46.9 255.311 46.5 255.111 46 255.111C45.7 255.111 45.3 255.211 44.8 255.511C44.3 255.711 44 256.011 43.7 256.211C44.2 256.811 44.4 257.311 44.4 257.811C44.4 258.411 44.1 258.911 43.6 259.311C43.1 259.711 42.5 259.911 42 259.911C41.3 259.911 40.7 259.711 40.2 259.211C39.7 258.711 39.5 258.111 39.5 257.311C39.5 255.711 40.4 254.511 42.1 253.511C43.1 252.911 44.1 252.711 45.1 252.711C46.4 252.711 47.6 253.211 48.5 254.111C49.4 255.011 49.9 256.111 49.9 257.411C49.9 258.811 49.4 260.111 48.3 261.311C47.9 261.811 47.3 262.211 46.5 262.711C46.8 262.911 47.2 263.111 47.5 263.311C48.5 263.811 49.5 264.711 50.6 266.011V249.011L52.3 251.011C52.3 251.111 52.3 251.111 52.3 251.211C52.3 251.311 52.3 251.411 52.3 251.411C52.4 252.111 52.5 252.511 52.7 252.611C53 252.611 53.3 252.711 53.6 252.711L56.1 255.111H53.2V255.211Z" fill="#00834A"/>
<path d="M68.7999 249.611C67.1999 248.411 65.4999 247.811 63.4999 247.811C62.2999 247.811 61.3999 248.111 60.5999 248.611L59.8999 249.111C59.5999 249.411 59.2999 249.811 58.8999 250.311C58.3999 250.911 58.1999 251.411 58.1999 251.511L58.6999 252.611H60.2999L62.6999 255.011H59.3999V271.811L56.8999 269.511V255.011H54.7999L52.3999 252.611H56.5999C56.2999 252.311 56.0999 252.111 55.8999 251.811C55.6999 251.511 55.4999 251.211 55.4999 250.811C55.4999 250.211 55.5999 249.611 55.8999 249.211C56.4999 248.211 57.0999 247.511 57.4999 247.111C57.9999 246.611 58.7999 246.111 59.7999 245.711C60.3999 245.411 61.1999 245.211 62.0999 245.211C64.1999 245.211 66.4999 246.011 68.8999 247.511C69.6999 248.011 70.5999 248.811 71.8999 250.111L72.6999 252.511L68.7999 249.611Z" fill="#00834A"/>
<path d="M62.2 256.711C61.9 256.511 61.5 256.111 61.1 255.711L60.8 255.011L58.5 252.811H74.9L77.4 255.311H74.2V272.311L72.8 270.711C72.5 269.611 72.3 268.911 72.2 268.611C71.9 267.811 71.5 267.211 71.1 266.811C70.2 266.011 69.5 265.511 69.1 265.311C68.2 266.211 67.2 266.711 66.1 266.711C65.1 266.711 64.3 266.411 63.8 265.911C63.5 265.611 63.3 265.311 63.3 265.211C63.3 265.111 63.2 264.811 63.1 264.311C63.1 264.111 63 263.911 63 263.711C63 263.011 63.3 262.211 63.9 261.411C64.4 260.811 65.3 260.411 66.7 260.411C67 260.411 67.2 260.411 67.4 260.511C67.3 259.611 66.9 258.811 66.2 258.311C65.7 257.911 64.9 257.611 63.9 257.311C63.1 257.111 62.5 256.911 62.2 256.711ZM71.9 255.211H65.9C66.7 255.911 67.3 256.411 67.5 256.611C68 257.111 68.5 257.611 68.8 258.211C69.2 258.911 69.5 259.911 69.8 261.211C69.9 261.611 69.9 262.111 69.9 262.511C70.4 262.911 71 263.611 71.8 264.611V255.211H71.9Z" fill="#00834A"/>
<path d="M91.9001 261.511C91.8001 260.911 91.4 260.311 90.8 259.711C90 258.811 89.0001 258.411 87.9001 258.411V271.811L86.5001 270.511C86.2001 269.511 85.9 268.811 85.8 268.611C85.6 268.211 85.2001 267.611 84.6001 267.011C83.1001 265.211 81.1 264.111 78.8 263.811L76.2001 260.611C79.1001 258.311 82.2001 256.611 85.4001 255.611V255.011H75.8L73.3 252.611H93.2001L95.6001 255.011H87.7001V255.411C88.8001 255.411 90 256.011 91.3 257.111C93 258.511 93.8001 260.311 93.7001 262.411C93.7001 263.311 93.4001 264.111 92.9001 264.711C92.3001 265.411 91.6001 265.711 90.7001 265.711C90.0001 265.711 89.5001 265.511 89.0001 265.011C88.5001 264.511 88.3 264.011 88.3 263.311C88.3 262.611 88.7001 261.911 89.4001 261.311C89.8001 261.211 90.2001 261.111 90.5001 261.111C91.2001 261.211 91.6001 261.311 91.9001 261.511ZM85.6001 258.711C84.4001 259.211 83.3001 259.711 82.5001 260.211C82.3001 260.311 81.8001 260.711 81.0001 261.211C82.9001 262.111 84.4001 263.411 85.6001 265.011V258.711Z" fill="#00834A"/>
<path d="M117 249.611C115.4 248.411 113.7 247.811 111.7 247.811C110.5 247.811 109.6 248.111 108.8 248.611L108.1 249.111C107.8 249.411 107.5 249.811 107.1 250.311C106.6 250.911 106.4 251.411 106.4 251.511L106.9 252.611H108.5L110.9 255.011H107.6V271.811L105.1 269.611V255.111H103L100.6 252.711H104.8C104.5 252.411 104.3 252.211 104.1 251.911C103.9 251.611 103.7 251.311 103.7 250.911C103.7 250.311 103.8 249.711 104.1 249.311C104.7 248.311 105.3 247.611 105.7 247.211C106.2 246.711 107 246.211 108 245.811C108.6 245.511 109.4 245.311 110.2 245.311C112.3 245.311 114.6 246.111 117 247.611C117.8 248.111 118.7 248.911 120 250.211L120.8 252.611L117 249.611Z" fill="#00834A"/>
<path d="M120.1 261.411C120 261.711 119.7 262.011 119.2 262.311C118.8 262.511 118.4 262.611 117.9 262.611C117 262.611 116.2 262.111 115.5 261.211C114.8 262.211 113.9 262.711 112.9 262.711C111.8 262.711 111 262.111 110.7 260.811C110.6 260.511 110.6 260.311 110.6 260.111C110.6 259.011 111.2 257.911 112.3 257.011C112.5 256.811 112.8 256.611 113.2 256.311C113 256.111 112.8 255.811 112.6 255.511C112.2 255.211 111.7 255.011 111.1 255.011C111.9 255.011 111.3 255.111 109.4 255.111L107 252.711H111.3C112.1 252.711 112.9 252.911 113.5 253.411C113.9 253.711 114.4 254.311 115 255.111C115.6 254.011 116.6 253.311 118 252.911C118.4 252.811 118.7 252.711 118.8 252.711C119.6 252.711 120.8 253.911 122.3 256.311L122.5 256.611L122.3 253.311L122.1 249.411C122.9 250.111 123.4 250.611 123.8 251.011C124 251.311 124.1 251.711 124.1 252.011C124.1 252.311 124.1 252.411 124.1 252.311C124.2 252.511 124.6 252.711 125.3 252.811L127.7 255.211H124.5V272.211L122 269.811L122.1 259.611C122.1 259.111 121.8 258.411 121.1 257.511C120.4 256.611 119.9 256.111 119.4 256.211C118.8 256.311 118.4 256.511 118.2 256.911C119.1 257.611 119.6 258.111 119.8 258.311C120.3 258.911 120.6 259.511 120.6 260.211C120.5 260.611 120.4 261.111 120.1 261.411Z" fill="#00834A"/>
<path d="M141 255.111V256.811C141.2 256.811 141.4 256.811 141.7 256.811C143 256.811 144.2 257.211 145.2 258.111C146.2 259.011 146.7 260.011 146.7 261.311C146.7 262.211 146.5 262.911 146.2 263.511C145.8 264.211 145.1 264.511 144.3 264.511C143 264.511 142.1 264.111 141.6 263.311C141.4 263.011 141.4 262.711 141.4 262.411C141.4 262.011 141.6 261.611 141.9 261.211C142.2 260.811 142.6 260.511 142.9 260.611C143.8 260.611 144.5 260.811 144.8 261.011C144.8 260.911 144.7 260.611 144.4 260.311C144 259.811 143.3 259.611 142.1 259.611C141.7 259.611 141.4 259.611 141.1 259.711V272.111L139.6 270.311C139.1 268.911 138.9 268.211 138.8 268.111C138.6 267.611 138.2 266.911 137.7 266.111C137.4 265.611 136.9 265.211 136.2 264.811C135.7 265.711 134.9 266.211 133.8 266.211C133.1 266.211 132.5 266.011 132.1 265.511C131.6 265.011 131.4 264.511 131.4 263.811C131.4 263.111 131.7 262.511 132.2 262.011C132.7 261.511 133.4 261.311 134.1 261.311H134.2C134.2 261.211 134.3 261.011 134.3 260.911C134.3 260.511 134.1 260.011 133.8 259.611C133.5 259.211 133.1 259.011 132.7 259.011C132.5 259.011 132.3 259.111 132.1 259.211C132.1 259.411 132 259.711 131.8 259.911C131.5 260.811 130.9 261.311 129.9 261.411C129.2 261.511 128.6 261.311 128.1 260.711C127.6 260.211 127.4 259.511 127.4 258.811C127.4 257.511 127.9 256.711 128.9 256.411C129.1 256.411 129.2 256.411 129.4 256.411C129.4 256.311 129.2 256.011 128.8 255.711C128.7 255.511 128.6 255.311 128.5 255.311H126L123.7 252.911H146.4L148.9 255.311H141V255.111ZM138.6 259.811C137 259.611 135.7 258.811 134.8 257.511C134.2 256.711 133.9 255.911 133.7 255.211H130.8C130.9 255.511 131.1 255.811 131.3 256.311C131.3 256.311 131.5 256.411 131.9 256.511C133.8 256.911 135.3 258.311 136.4 260.711C136.6 261.211 136.8 261.711 136.8 262.411C137.4 262.811 138.1 263.411 138.6 264.211V259.811ZM138.6 255.111H136C136 255.111 136.1 255.211 136.1 255.411C136.1 256.011 136.2 256.411 136.5 256.611C136.9 256.911 137.5 257.111 138.3 257.111C138.4 257.111 138.6 257.111 138.7 257.111V255.111H138.6Z" fill="#00834A"/>
<path d="M149.9 254.211L149.8 253.711C149.7 252.611 149.6 251.211 149.6 249.411L151 250.511C151.1 251.211 151.2 251.811 151.4 252.311C151.5 252.411 151.6 252.611 151.8 252.711H152.9L155.3 255.111H152V272.611L149.6 270.111V258.011C149.6 257.511 149.5 257.211 149.5 257.111C149.4 256.511 149.1 256.111 148.6 255.711C148.1 255.311 147.6 255.111 147 255.111C146.9 255.111 146.7 255.111 146.5 255.111L144.1 252.811C145.2 252.711 145.9 252.611 146.4 252.611C148 252.711 149.2 253.211 149.9 254.211Z" fill="#00834A"/>
<path d="M180 255.111V272.411L178.7 270.611C178.6 270.411 178.5 270.011 178.3 269.411C178.1 268.611 177.6 267.711 176.9 266.511C176.8 266.311 176.4 265.811 175.7 265.011C174.6 266.511 173.3 267.211 171.7 267.211C170.1 267.211 168.6 266.511 167.2 265.211C166.8 264.811 166.1 264.011 165.4 262.811C164.9 262.111 164.4 260.811 163.7 259.011C163.1 257.311 162.7 255.911 162.5 254.911L164.3 255.711C164.6 256.611 164.9 257.511 165.3 258.511C165.8 259.811 166.4 260.711 166.8 261.211C167.8 262.111 168.5 262.811 168.9 263.011C169.7 263.511 170.6 263.711 171.6 263.611C173.2 263.511 173.9 262.711 173.9 261.311C173.9 260.911 173.8 260.411 173.6 259.911C173.4 259.311 173.1 258.911 172.8 258.811C172.7 258.711 172.6 258.711 172.5 258.711C172.5 258.711 172.4 258.911 172.1 259.311C171.6 260.011 171 260.311 170.3 260.311C169.7 260.311 169.1 260.111 168.5 259.711C167.8 259.211 167.5 258.511 167.5 257.811C167.5 256.711 168 255.911 169 255.511C169.4 255.311 169.9 255.211 170.4 255.211C171.3 255.211 172.1 255.411 173 255.911C173.8 256.411 174.5 257.011 175 257.711C176 259.111 176.5 260.511 176.4 261.911L177.5 263.711V255.011H162.5L160.1 252.611H180.8L183.3 255.011H180V255.111Z" fill="#00834A"/>
<path d="M195.5 249.611C193.9 248.411 192.2 247.811 190.2 247.811C189 247.811 188.1 248.111 187.3 248.611L186.6 249.111C186.3 249.411 186 249.811 185.6 250.311C185.1 250.911 184.9 251.411 184.9 251.511L185.4 252.611H187L189.4 255.011H186.1V271.811L183.6 269.511V255.011H181.5L179.1 252.611H183.3C183 252.311 182.8 252.111 182.6 251.811C182.4 251.511 182.2 251.211 182.2 250.811C182.2 250.211 182.3 249.611 182.6 249.211C183.2 248.211 183.8 247.511 184.2 247.111C184.7 246.611 185.5 246.111 186.5 245.711C187.1 245.411 187.9 245.211 188.7 245.211C190.8 245.211 193.1 246.011 195.5 247.511C196.2 248.011 197.2 248.811 198.5 250.111L199.3 252.511L195.5 249.611Z" fill="#00834A"/>
<path d="M192.1 255.611C192.1 255.511 192.1 255.611 192.1 256.011C192.1 256.411 192.3 256.611 192.6 256.911C193 257.111 193.3 257.311 193.7 257.311C193.8 257.311 193.9 257.311 194 257.211C194.1 257.211 194.2 257.111 194.4 257.011C195.4 256.411 196.5 255.811 197.8 255.011V252.711H200.8L203.2 255.111H200.2V273.211L199 271.011L198.3 269.411C198.1 268.911 197.7 268.311 197 267.511C196.3 266.811 195.8 266.311 195.3 266.011C194.4 265.411 193.6 265.011 193.1 264.811C192.5 264.611 191.7 264.411 190.6 264.311L188.3 261.311C189.1 260.711 190.3 259.811 191.9 258.711C190.8 258.511 190.1 257.911 189.6 257.111C189.3 256.511 189.2 256.011 189.2 255.511C189.2 254.311 189.7 253.511 190.6 253.011C191.2 252.711 191.8 252.511 192.3 252.511C192.9 252.511 193.4 252.711 193.9 253.011C194.4 253.311 194.6 253.711 194.6 254.211C194.6 254.711 194.4 255.111 194.2 255.411C193.9 255.711 193.5 255.911 193 255.911C192.8 255.911 192.4 255.811 192.1 255.611ZM198 258.711C196.4 259.411 194.9 260.411 193.3 261.711C195.2 262.711 196.7 264.011 198 265.611V258.711Z" fill="#00834A"/>
<path d="M206.1 260.611L206.5 260.211L208.2 258.711C209.4 257.811 210.9 256.911 212.9 256.211L216.1 258.611C214.9 260.811 214.3 262.711 214.1 264.111C213.9 265.711 213.8 267.011 214 267.711C214 268.011 214.1 269.111 214.5 271.211L214.6 271.811L212.6 270.811C211.9 267.711 211.6 265.411 211.6 263.911C211.6 262.811 211.7 261.611 212 260.411C209.4 261.511 207.4 263.611 206.2 266.711L203.5 263.911V254.911H202.1L199.6 252.511H216.2L218.7 254.911H206.1V260.611Z" fill="#00834A"/>
<path d="M231.3 255.111V260.711C232.6 261.811 233.3 263.111 233.4 264.611C233.5 266.311 233 267.711 231.9 268.711C230.8 269.611 229.5 270.111 227.8 270.111C227.4 270.111 226.8 270.111 225.8 269.811C224.8 269.611 223.7 268.911 222.3 267.711C221.6 267.111 220.7 265.811 219.4 263.611C219 262.711 218.5 261.311 217.9 259.511C217.6 258.611 217.4 257.311 217.3 255.611L219.2 256.811C219.5 258.011 219.8 258.811 220 259.311C220.3 260.111 220.6 260.911 221.1 261.611C221.3 261.911 221.6 262.511 222.1 263.211C222.5 263.711 223 264.211 223.4 264.711C224 265.311 224.5 265.711 225 265.911C226 266.211 226.9 266.411 227.6 266.411C227.8 266.411 228.1 266.411 228.3 266.411C229.2 266.411 229.9 266.211 230.5 265.711C231.1 265.311 231.4 264.611 231.4 263.811C231.4 263.011 231.2 262.611 230.9 262.411C230.6 262.211 230.3 262.111 229.9 261.911C230.1 262.311 230.2 262.711 230.2 263.211C230.2 263.911 230 264.511 229.5 264.911C229 265.311 228.5 265.511 227.8 265.511C227 265.511 226.4 265.211 226 264.511C225.6 263.811 225.4 263.211 225.6 262.511C225.6 261.711 226 261.011 226.8 260.411C227.5 259.811 228.3 259.511 229.1 259.511C229.2 259.511 229.3 259.511 229.4 259.511C229.3 258.811 229 258.111 228.5 257.611L224.1 261.711L220.9 260.411C222 259.911 222.6 259.411 222.9 258.911C223 258.611 223.1 258.511 223.1 258.411C222.9 258.211 222.7 258.111 222.6 258.111C222.4 258.111 222.1 258.211 221.7 258.311C221.2 258.411 220.7 258.311 220.3 258.011C219.8 257.711 219.6 257.411 219.6 256.811C219.6 255.711 220.3 254.711 221.8 253.711C222.8 253.011 223.9 252.611 224.9 252.611C225.7 252.611 226.6 252.911 227.5 253.511C228.3 254.011 229 254.711 229.5 255.411V249.311L231.1 250.811C231.1 251.011 231.1 251.211 231.3 251.611C231.4 252.111 231.5 252.411 231.7 252.711C232 252.711 232.4 252.711 232.7 252.811L235.1 255.211H231.3V255.111ZM224.8 255.311C224.2 255.311 223.6 255.611 223 256.111C223.6 256.311 224 256.811 224.2 257.511L226.1 255.811C225.7 255.511 225.3 255.311 224.8 255.311Z" fill="#00834A"/>
<path d="M245.4 255.111V271.911L244 270.611C242.9 268.711 242.4 267.611 242.3 267.511C241.6 266.511 240.8 265.711 239.8 265.111C238.5 264.311 237.1 263.911 235.7 263.811L233.3 260.511C236.6 258.211 239.9 256.511 243.1 255.511V255.111H233.5L231 252.711H246.1L248.6 255.111H245.4ZM238.9 270.011C238.3 270.011 237.8 269.811 237.4 269.411C237 269.011 236.8 268.511 236.8 267.911C236.8 267.411 237 266.911 237.4 266.511C237.8 266.111 238.2 265.911 238.8 265.911C239.4 265.911 239.9 266.111 240.3 266.511C240.7 266.911 240.9 267.411 240.9 267.911C240.9 268.411 240.7 268.911 240.3 269.311C239.9 269.811 239.4 270.011 238.9 270.011ZM243 258.711C241.4 259.311 239.7 260.111 237.9 261.311C239.9 262.211 241.6 263.611 243 265.611V258.711Z" fill="#00834A"/>
<path d="M3.19995 235.911H259.6" stroke="#B41E8E" stroke-width="4.156"/>
</svg>
